<?xml version="1.0" standalone="no"?>
<!DOCTYPE svg PUBLIC "-//W3C//DTD SVG 20010904//EN"
 "http://www.w3.org/TR/2001/REC-SVG-20010904/DTD/svg10.dtd">
<svg version="1.0" xmlns="http://www.w3.org/2000/svg"
 width="64.000000pt" height="64.000000pt" viewBox="0 0 64.000000 64.000000"
 preserveAspectRatio="xMidYMid meet">

<g transform="translate(0.000000,64.000000) scale(0.100000,-0.100000)"
fill="#000000" stroke="none">
<path d="M262 588 c-23 -23 -14 -75 19 -113 36 -41 46 -43 51 -12 2 18 10 23
44 25 34 3 49 12 94 57 l54 55 -125 0 c-84 0 -129 -4 -137 -12z"/>
<path d="M202 568 c-28 -28 -7 -91 50 -144 59 -56 122 -75 111 -34 -3 12 -14
20 -25 20 -12 0 -40 20 -64 44 -38 37 -44 49 -44 85 0 42 -7 50 -28 29z"/>
<path d="M154 520 c-9 -9 -9 -19 -1 -41 8 -21 8 -37 0 -58 -10 -28 -7 -32 126
-164 75 -74 146 -140 158 -146 12 -6 53 -11 92 -11 55 0 71 3 71 14 0 26 -30
46 -70 46 -52 0 -68 8 -86 41 -8 17 -23 29 -34 29 -11 0 -20 5 -20 10 0 6 7
10 15 10 8 0 15 5 15 10 0 6 -11 10 -25 10 -14 0 -25 5 -25 10 0 6 7 10 15 10
8 0 15 5 15 10 0 6 -11 10 -25 10 -31 0 -33 17 -2 23 27 4 10 12 -47 22 -50 8
-130 82 -148 136 -10 29 -16 37 -24 29z"/>
<path d="M105 470 c-17 -19 -17 -21 0 -40 22 -25 35 -17 35 20 0 37 -13 45
-35 20z"/>
<path d="M350 450 c0 -15 7 -20 25 -20 18 0 25 5 25 20 0 15 -7 20 -25 20 -18
0 -25 -5 -25 -20z"/>
<path d="M50 405 c-13 -33 -3 -60 16 -44 20 16 30 3 14 -16 -11 -14 -10 -19 8
-37 18 -18 23 -19 37 -8 20 17 32 5 15 -15 -18 -21 12 -53 54 -57 26 -3 31 -8
34 -33 5 -39 17 -51 37 -35 20 17 32 5 15 -15 -11 -14 -10 -19 8 -37 18 -18
23 -19 37 -8 19 15 34 5 17 -12 -17 -17 -15 -23 13 -36 34 -16 82 -15 89 1 5
9 7 9 12 0 7 -17 61 -17 67 0 4 9 8 9 15 -1 13 -19 56 -11 60 11 3 15 -5 17
-68 17 -39 0 -85 6 -103 14 -18 8 -104 86 -192 175 -88 89 -163 161 -168 161
-4 0 -12 -11 -17 -25z"/>
<path d="M384 394 c3 -9 6 -18 6 -20 0 -2 6 -4 14 -4 9 0 12 7 9 20 -3 11 -12
20 -20 20 -10 0 -13 -6 -9 -16z"/>
<path d="M405 340 c3 -5 13 -10 21 -10 8 0 12 5 9 10 -3 6 -13 10 -21 10 -8 0
-12 -4 -9 -10z"/>
<path d="M425 300 c3 -5 10 -10 16 -10 5 0 9 5 9 10 0 6 -7 10 -16 10 -8 0
-12 -4 -9 -10z"/>
<path d="M440 260 c0 -5 7 -10 15 -10 8 0 15 5 15 10 0 6 -7 10 -15 10 -8 0
-15 -4 -15 -10z"/>
<path d="M460 222 c0 -15 28 -47 35 -40 8 8 -13 48 -25 48 -6 0 -10 -4 -10 -8z"/>
<path d="M20 210 c0 -5 25 -10 55 -10 30 0 55 5 55 10 0 6 -25 10 -55 10 -30
0 -55 -4 -55 -10z"/>
<path d="M20 150 c0 -6 35 -10 85 -10 50 0 85 4 85 10 0 6 -35 10 -85 10 -50
0 -85 -4 -85 -10z"/>
<path d="M20 90 c0 -6 45 -10 115 -10 70 0 115 4 115 10 0 6 -45 10 -115 10
-70 0 -115 -4 -115 -10z"/>
</g>
</svg>
